# xmcd
#
# Track frame offsets: 
#        150
#        39507
#        89910
#        131951
#        201631
#        232285
#        271521
#
# Disc length: 4061 seconds
#
# Revision: 0
# Processed by: cddbd v1.4PL0 Copyright (c) Steve Scherf et al.
# Submitted via: ExactAudioCopy v0.90b3
#
DISCID=6e0fdb07
DTITLE=Robert Randolph and the Family Band - June 22, 2002
DYEAR=2002
DGENRE=Jamband
TTITLE0=Calypso
TTITLE1=I Get Joy
TTITLE2=The March
TTITLE3=Press On
TTITLE4=Swing Low Sweet Chariot
TTITLE5=Voodoo Chile
TTITLE6=I Don't Know What You've Come to Do
EXTD=
EXTT0=
EXTT1=
EXTT2=
EXTT3=
EXTT4=
EXTT5=
EXTT6=
PLAYORDER=
